<svg width="89" height="42" viewBox="0 0 89 42" fill="none" xmlns="http://www.w3.org/2000/svg">
<path fill-rule="evenodd" clip-rule="evenodd" d="M9.14907 30.2704C-1.41034 21.7413 1.15983 11.2767 4.88795 6.98237C13.6694 -2.96482 24.9251 1.57797 29.4835 5.73347C45.9598 5.73347 62.4371 5.73347 78.9144 5.73347C83.8923 5.82833 87.55 9.25229 87.9999 14.819C87.9999 19.9476 87.9999 25.0753 87.9999 30.2039C87.8229 32.156 87.107 33.0655 85.0611 33.1428C74.2796 33.1428 63.4972 33.1428 52.7158 33.1428C45.0611 40.9149 29.6156 45.6963 14.4899 33.889C13.4425 34.9364 12.397 35.9819 11.3486 37.0293C9.20384 38.8924 4.96228 35.0909 6.94272 32.6225C7.67817 31.8381 8.41362 31.0547 9.14907 30.2704Z" fill="white"/>
<path d="M9.14907 30.2704C-1.41034 21.7413 1.15983 11.2767 4.88795 6.98237C13.6694 -2.96482 24.9251 1.57797 29.4835 5.73347C45.9598 5.73347 62.4371 5.73347 78.9144 5.73347C83.8924 5.82833 87.5501 9.25229 87.9999 14.819C87.9999 19.9476 87.9999 25.0753 87.9999 30.2039C87.8229 32.156 87.107 33.0655 85.0611 33.1428C74.2796 33.1428 63.4972 33.1428 52.7158 33.1428C45.0611 40.9149 29.6156 45.6963 14.4899 33.889C13.4425 34.9364 12.397 35.9819 11.3486 37.0293C9.20384 38.8924 4.96228 35.0909 6.94272 32.6225C7.67817 31.8381 8.41362 31.0547 9.14907 30.2704Z" stroke="#1B1918" stroke-width="1.5004"/>
<path fill-rule="evenodd" clip-rule="evenodd" d="M27.3967 7.175C20.2153 -0.429889 8.8803 1.88796 4.8803 11.2405C2.45487 17.9163 4.75512 25.2327 13.0955 28.906C13.4681 28.4855 13.8417 28.065 14.2143 27.6454C-0.642439 18.2351 12.4979 -2.86901 27.3967 7.175Z" fill="#009035"/>
<path fill-rule="evenodd" clip-rule="evenodd" d="M9.63525 34.1999C9.8064 34.375 9.97853 34.551 10.1497 34.7271C11.4406 33.3178 13.0191 32.0532 14.8587 30.9188C28.7824 43.262 46.1057 39.1603 52.7883 28.0875C51.0152 28.8239 48.7375 28.596 45.8661 27.2386C37.6861 23.0156 30.2093 22.729 23.1961 25.0254C17.6734 27.0136 13.0993 30.0141 9.63525 34.1999Z" fill="#009035"/>
<path fill-rule="evenodd" clip-rule="evenodd" d="M42.317 30.9305C36.8021 26.468 28.9234 25.888 18.8099 28.9746C18.2231 29.043 17.6353 29.1115 17.0476 29.1799C14.9077 29.6132 16.0041 31.5838 17.1757 30.8787C25.6481 27.2719 34.051 26.3692 42.317 30.9305Z" fill="white"/>
<path fill-rule="evenodd" clip-rule="evenodd" d="M58.0089 28.8338H59.3537C59.6725 28.8338 59.9043 28.7761 60.05 28.6606C60.1947 28.5462 60.2671 28.3653 60.2671 28.1169C60.2671 27.8597 60.1957 27.6748 60.0529 27.5604C59.9101 27.447 59.6744 27.3902 59.3458 27.3902H58.0089V28.8338ZM58.0089 26.4455H59.3048C59.5854 26.4455 59.7889 26.3976 59.918 26.3007C60.048 26.2049 60.1136 26.0543 60.1136 25.847C60.1136 25.6445 60.051 25.4988 59.9238 25.4078C59.7987 25.3169 59.5903 25.2709 59.2969 25.2709H58.0089V26.4455ZM56.9194 29.8323V24.3115H59.5229C60.0872 24.3115 60.5165 24.4298 60.8138 24.6695C61.1092 24.9071 61.2578 25.2543 61.2578 25.7091C61.2578 25.9878 61.2031 26.2215 61.0935 26.4083C60.984 26.5951 60.8187 26.7399 60.5996 26.8426C60.8842 26.958 61.0964 27.1242 61.2383 27.3404C61.3781 27.5565 61.4495 27.8254 61.4495 28.1482C61.4495 28.6851 61.2735 29.1007 60.9253 29.3932C60.5742 29.6856 60.0793 29.8323 59.4368 29.8323H56.9194ZM63.4622 26.7223H64.7991C65.0896 26.7223 65.3028 26.6636 65.4387 26.5472C65.5757 26.4289 65.6431 26.245 65.6431 25.9927C65.6431 25.7531 65.5766 25.5721 65.4446 25.4489C65.3106 25.3247 65.115 25.2631 64.851 25.2631H63.4622V26.7223ZM62.3268 29.8323V24.3115H65.0065C65.6089 24.3115 66.0539 24.4396 66.3434 24.6968C66.6348 24.954 66.7796 25.3482 66.7796 25.8763C66.7796 26.2127 66.7092 26.4944 66.5674 26.7183C66.4265 26.9433 66.2231 27.0968 65.9571 27.179C66.1957 27.265 66.3669 27.3941 66.4676 27.5692C66.5683 27.7443 66.6251 28.0171 66.6417 28.3868L66.6642 29.0401C66.6642 29.045 66.6642 29.0528 66.6642 29.0626C66.672 29.3932 66.7434 29.5927 66.8793 29.6631V29.8323H65.6343C65.5962 29.754 65.5649 29.6592 65.5434 29.5457C65.5229 29.4313 65.5092 29.2954 65.5053 29.1379L65.4886 28.556C65.4769 28.2127 65.4133 27.9829 65.2969 27.8626C65.1806 27.7423 64.9703 27.6817 64.6681 27.6817H63.4622V29.8323H62.3268ZM69.8642 25.4166L69.0974 27.7668H70.6309L69.8642 25.4166ZM69.204 24.3115H70.5155L72.5067 29.8323H71.3136L70.939 28.6959H68.7991L68.4353 29.8323H67.2392L69.204 24.3115ZM72.8216 28.1276H73.9424C73.9845 28.4289 74.1087 28.6538 74.3131 28.7995C74.5185 28.9452 74.8148 29.0176 75.203 29.0176C75.5317 29.0176 75.781 28.9589 75.9493 28.8416C76.1165 28.7252 76.1996 28.5511 76.1996 28.3223C76.1996 27.9868 75.7185 27.71 74.7561 27.49L74.7229 27.4822C74.6984 27.4773 74.6583 27.4685 74.6055 27.4567C74.092 27.3443 73.7243 27.2171 73.5043 27.0763C73.3097 26.9531 73.162 26.7839 73.0593 26.5726C72.9566 26.3614 72.9057 26.112 72.9057 25.8235C72.9057 25.2866 73.0886 24.8739 73.4534 24.5873C73.8182 24.3007 74.3444 24.158 75.0339 24.158C75.6793 24.158 76.183 24.3095 76.5458 24.6157C76.9096 24.9218 77.0994 25.3521 77.1199 25.9086H76.0304C76.0099 25.6406 75.9082 25.4372 75.7224 25.2963C75.5385 25.1575 75.2754 25.0871 74.9331 25.0871C74.6358 25.0871 74.407 25.1448 74.2456 25.2611C74.0842 25.3775 74.004 25.5438 74.004 25.7589C74.004 26.0504 74.317 26.2694 74.9439 26.4142C75.114 26.4543 75.2461 26.4856 75.3409 26.5081C75.7429 26.6108 76.0295 26.69 76.1986 26.7477C76.3659 26.8054 76.5136 26.869 76.6387 26.9384C76.8637 27.0636 77.0319 27.2289 77.1444 27.4352C77.2559 27.6406 77.3126 27.888 77.3126 28.1756C77.3126 28.7506 77.1199 29.1956 76.7317 29.5115C76.3444 29.8284 75.7977 29.9858 75.0935 29.9858C74.3991 29.9858 73.8544 29.8245 73.4583 29.5017C73.0622 29.1809 72.851 28.7213 72.8216 28.1276ZM78.2348 24.3115H79.3713V29.8323H78.2348V24.3115ZM80.5546 29.8323V24.3115H81.6911V28.8103H84.3864V29.8323H80.5546Z" fill="#1B1918"/>
<path fill-rule="evenodd" clip-rule="evenodd" d="M30.4261 10.244H30.9816C31.1313 10.244 31.2398 10.2127 31.3093 10.1482C31.3758 10.0846 31.411 9.9819 31.411 9.84107C31.411 9.70806 31.3777 9.60831 31.3112 9.53985C31.2437 9.47139 31.144 9.43716 31.012 9.43716H30.4261V10.244ZM30.4222 10.7477V11.7403H29.8481V8.95305H31.0892C31.3826 8.95305 31.6036 9.02933 31.7552 9.18092C31.9058 9.33251 31.9802 9.5555 31.9802 9.84889C31.9802 10.1364 31.9078 10.3584 31.7591 10.5139C31.6124 10.6694 31.4012 10.7477 31.1274 10.7477H30.4222ZM33.009 10.1707H33.6838C33.8305 10.1707 33.9381 10.1403 34.0066 10.0817C34.076 10.022 34.1102 9.92909 34.1102 9.80195C34.1102 9.68068 34.077 9.58973 34.0095 9.52713C33.942 9.46454 33.8433 9.43325 33.7102 9.43325H33.009V10.1707ZM32.4349 11.7403V8.95305H33.7885C34.0926 8.95305 34.3176 9.0176 34.4633 9.14669C34.611 9.27677 34.6843 9.47628 34.6843 9.74327C34.6843 9.91344 34.6481 10.0553 34.5768 10.1687C34.5054 10.2821 34.4027 10.3594 34.2687 10.4015C34.389 10.4445 34.4741 10.509 34.5259 10.598C34.5777 10.687 34.6061 10.824 34.6139 11.0108L34.6257 11.3403C34.6257 11.3433 34.6257 11.3472 34.6257 11.3521C34.6296 11.5193 34.6657 11.62 34.7342 11.6553V11.7403H34.1063C34.0858 11.7012 34.0711 11.6533 34.0594 11.5956C34.0496 11.5389 34.0428 11.4694 34.0408 11.3902L34.033 11.0968C34.0252 10.9227 33.9939 10.8064 33.9352 10.7457C33.8765 10.6851 33.7699 10.6548 33.6173 10.6548H33.009V11.7403H32.4349ZM35.6682 10.3486C35.6682 10.6557 35.7357 10.8934 35.8716 11.0636C36.0076 11.2337 36.1992 11.3178 36.4437 11.3178C36.6912 11.3178 36.8829 11.2337 37.0208 11.0636C37.1587 10.8934 37.2271 10.6557 37.2271 10.3486C37.2271 10.0416 37.1587 9.80391 37.0208 9.63374C36.8829 9.46356 36.6912 9.37946 36.4437 9.37946C36.1992 9.37946 36.0076 9.46356 35.8716 9.63276C35.7357 9.80195 35.6682 10.0406 35.6682 10.3486ZM35.0824 10.3486C35.0824 9.89779 35.2056 9.53985 35.4511 9.27579C35.6966 9.01173 36.0281 8.87872 36.4437 8.87872C36.8604 8.87872 37.1919 9.01173 37.4384 9.27677C37.6858 9.5418 37.809 9.89877 37.809 10.3486C37.809 10.7975 37.6858 11.1555 37.4384 11.4205C37.1919 11.6856 36.8604 11.8186 36.4437 11.8186C36.0281 11.8186 35.6966 11.6856 35.4511 11.4205C35.2056 11.1555 35.0824 10.7975 35.0824 10.3486ZM38.8242 11.2367H39.2848C39.5508 11.2367 39.7445 11.1672 39.8628 11.0274C39.9821 10.8875 40.0418 10.6616 40.0418 10.3486C40.0418 10.0367 39.987 9.80782 39.8755 9.66112C39.7631 9.51442 39.5909 9.44107 39.3543 9.44107H38.8242V11.2367ZM38.2628 11.7403V8.95305H39.3543C39.7826 8.95305 40.1024 9.06845 40.3127 9.29926C40.522 9.53007 40.6276 9.88019 40.6276 10.3496C40.6276 10.6049 40.5895 10.8288 40.5112 11.0235C40.434 11.2181 40.3205 11.3746 40.1738 11.4929C40.0623 11.5809 39.9352 11.6445 39.7944 11.6836C39.6535 11.7218 39.455 11.7403 39.1997 11.7403H38.2628ZM41.0658 8.94523H41.6437V10.6939C41.6437 10.909 41.6868 11.0665 41.7728 11.1653C41.8579 11.2641 41.9948 11.3139 42.1816 11.3139C42.3704 11.3139 42.5093 11.265 42.5953 11.1672C42.6824 11.0675 42.7254 10.91 42.7254 10.6939V8.94523H43.2995V10.7555C43.2995 11.0988 43.2036 11.3609 43.0129 11.5438C42.8213 11.7266 42.5464 11.8186 42.1865 11.8186C41.8237 11.8186 41.5469 11.7276 41.3552 11.5447C41.1626 11.3619 41.0658 11.0988 41.0658 10.7555V8.94523ZM44.4389 11.7403V9.44889H43.6124V8.95305H45.8345V9.44889H45.0129V11.7403H44.4389ZM46.6305 10.3486C46.6305 10.6557 46.698 10.8934 46.8349 11.0636C46.9709 11.2337 47.1616 11.3178 47.4061 11.3178C47.6535 11.3178 47.8452 11.2337 47.9831 11.0636C48.121 10.8934 48.1895 10.6557 48.1895 10.3486C48.1895 10.0416 48.121 9.80391 47.9831 9.63374C47.8452 9.46356 47.6535 9.37946 47.4061 9.37946C47.1616 9.37946 46.9709 9.46356 46.8349 9.63276C46.698 9.80195 46.6305 10.0406 46.6305 10.3486ZM46.0447 10.3486C46.0447 9.89779 46.168 9.53985 46.4134 9.27579C46.6579 9.01173 46.9895 8.87872 47.4061 8.87872C47.8217 8.87872 48.1543 9.01173 48.4007 9.27677C48.6472 9.5418 48.7704 9.89877 48.7704 10.3486C48.7704 10.7975 48.6472 11.1555 48.4007 11.4205C48.1543 11.6856 47.8217 11.8186 47.4061 11.8186C46.9895 11.8186 46.6579 11.6856 46.4134 11.4205C46.168 11.1555 46.0447 10.7975 46.0447 10.3486Z" fill="#1B1918"/>
<path fill-rule="evenodd" clip-rule="evenodd" d="M32.0138 17.2602H34.0764C34.5243 17.2602 34.8549 17.1692 35.0642 16.9893C35.2754 16.8074 35.3801 16.5228 35.3801 16.1345C35.3801 15.7648 35.2774 15.4841 35.0739 15.2944C34.8686 15.1027 34.5644 15.0079 34.1576 15.0079H32.0138V17.2602ZM30.2593 22.0592V13.5389H34.3962C35.3263 13.5389 36.0138 13.7365 36.4627 14.1335C36.9106 14.5306 37.1336 15.1389 37.1336 15.9546C37.1336 16.4739 37.025 16.9081 36.806 17.2543C36.5889 17.6015 36.2749 17.8391 35.8642 17.9653C36.2329 18.0973 36.496 18.2969 36.6524 18.5678C36.8079 18.8377 36.8969 19.2592 36.9204 19.8294L36.9566 20.8367C36.9566 20.8445 36.9566 20.8572 36.9566 20.8729C36.9673 21.3824 37.0788 21.6905 37.2881 21.7991V22.0592H35.3683C35.3067 21.9389 35.2598 21.7932 35.2255 21.6171C35.1942 21.4411 35.1747 21.2318 35.1669 20.9893L35.1434 20.0905C35.1228 19.5614 35.0241 19.2054 34.8451 19.0196C34.6651 18.8338 34.3414 18.7418 33.8749 18.7418H32.0138V22.0592H30.2593ZM44.8539 21.0519C44.539 21.4812 44.1791 21.7951 43.7761 21.9966C43.3713 22.1961 42.8999 22.2969 42.3561 22.2969C41.1629 22.2969 40.1996 21.8822 39.4603 21.0538C38.7219 20.2264 38.3522 19.1399 38.3522 17.7932C38.3522 16.4347 38.7219 15.3502 39.4583 14.5345C40.1957 13.7208 41.1776 13.314 42.404 13.314C43.472 13.314 44.3424 13.5702 45.0192 14.0817C45.692 14.5932 46.095 15.2964 46.2221 16.1932H44.4324C44.3238 15.7492 44.1048 15.4108 43.7693 15.178C43.4368 14.9472 43.0026 14.8308 42.4666 14.8308C41.7537 14.8308 41.1952 15.091 40.7884 15.6142C40.3815 16.1384 40.1781 16.8592 40.1781 17.7814C40.1781 18.7076 40.3894 19.4323 40.8138 19.9585C41.2363 20.4817 41.8182 20.7438 42.5585 20.7438C43.115 20.7438 43.5786 20.5805 43.9522 20.2519C44.3258 19.9262 44.5566 19.4783 44.6456 18.9071H42.715V17.4499H46.2456V22.0592H45.0681L44.8539 21.0519ZM51.1004 15.2455L49.9189 18.8719H52.2857L51.1004 15.2455ZM50.0803 13.5389H52.1057L55.1796 22.0592H53.338L52.76 20.3057H49.4573L48.896 22.0592H47.0495L50.0803 13.5389ZM49.2891 12.7917L50.4246 10.647H51.8035L52.939 12.7917H52.1214L51.1131 11.534L50.095 12.7917H49.2891ZM56.0559 22.0592V13.5389H57.8916L61.3537 19.3932V13.5389H63.0837V22.0592H61.2725L57.7869 16.2049V22.0592H56.0559ZM64.8989 13.5389H66.6534V22.0592H64.8989V13.5389ZM75.8984 19.1321C75.8339 20.1003 75.4603 20.8709 74.7786 21.4411C74.0999 22.0123 73.2109 22.2969 72.1165 22.2969C70.8539 22.2969 69.8749 21.9037 69.1757 21.1154C68.4744 20.3291 68.1243 19.225 68.1243 17.8049C68.1243 16.3536 68.4823 15.2435 69.1952 14.4709C69.9082 13.6983 70.9331 13.314 72.272 13.314C73.3585 13.314 74.2182 13.578 74.848 14.1101C75.4798 14.6411 75.826 15.3893 75.8867 16.3594H74.1566C74.0832 15.8773 73.8857 15.5096 73.5678 15.2572C73.248 15.0039 72.8158 14.8778 72.272 14.8778C71.5023 14.8778 70.9155 15.1272 70.5145 15.625C70.1136 16.1228 69.914 16.8494 69.914 17.8049C69.914 18.7291 70.1136 19.446 70.5126 19.9497C70.9116 20.4563 71.4788 20.7086 72.2153 20.7086C72.7463 20.7086 73.1825 20.5726 73.5209 20.3017C73.8603 20.0308 74.0793 19.6396 74.1801 19.1321H75.8984ZM78.7209 17.8049C78.7209 18.7428 78.9292 19.4704 79.3458 19.9898C79.7625 20.5091 80.3453 20.7682 81.0916 20.7682C81.8485 20.7682 82.4343 20.5091 82.8559 19.9898C83.2764 19.4704 83.4857 18.7428 83.4857 17.8049C83.4857 16.867 83.2764 16.1404 82.8559 15.6201C82.4343 15.1008 81.8485 14.8426 81.0916 14.8426C80.3453 14.8426 79.7625 15.1008 79.3458 15.6191C78.9292 16.1345 78.7209 16.8631 78.7209 17.8049ZM76.9321 17.8049C76.9321 16.4279 77.3067 15.3345 78.0578 14.5267C78.8079 13.7189 79.8192 13.314 81.0916 13.314C82.3639 13.314 83.3791 13.7189 84.1302 14.5286C84.8862 15.3404 85.2627 16.4308 85.2627 17.8049C85.2627 19.178 84.8862 20.2704 84.1302 21.0822C83.3791 21.892 82.3639 22.2969 81.0916 22.2969C79.8192 22.2969 78.8079 21.892 78.0578 21.0822C77.3067 20.2704 76.9321 19.178 76.9321 17.8049Z" fill="#1B1918"/>
<path fill-rule="evenodd" clip-rule="evenodd" d="M15.2242 17.3227C15.2242 19.2572 15.6515 20.7555 16.5102 21.8274C17.3699 22.8983 18.5718 23.4313 20.1102 23.4313C21.6711 23.4313 22.8809 22.8983 23.7484 21.8274C24.6158 20.7555 25.0481 19.2572 25.0481 17.3227C25.0481 15.3873 24.6158 13.889 23.7484 12.8171C22.8809 11.7462 21.6711 11.2132 20.1102 11.2132C18.5718 11.2132 17.3699 11.7462 16.5102 12.8132C15.6515 13.8763 15.2242 15.3794 15.2242 17.3227ZM11.5332 17.3227C11.5332 14.4836 12.3078 12.2274 13.855 10.5609C15.4031 8.89533 17.4882 8.06012 20.1102 8.06012C22.7342 8.06012 24.8281 8.89533 26.3801 10.5648C27.9352 12.2391 28.7136 14.4875 28.7136 17.3227C28.7136 19.3794 28.3029 21.131 27.4814 22.5765C25.7405 22.8122 24.03 23.2132 22.3459 23.7648C20.4779 24.4376 18.7185 25.2259 17.0735 26.1364C15.8217 25.7296 14.7489 25.044 13.855 24.0797C12.3078 22.4054 11.5332 20.153 11.5332 17.3227Z" fill="#1B1918"/>
</svg>
